<?xml version="1.0" standalone="no"?>
<!DOCTYPE svg PUBLIC "-//W3C//DTD SVG 20010904//EN"
 "http://www.w3.org/TR/2001/REC-SVG-20010904/DTD/svg10.dtd">
<svg version="1.0" xmlns="http://www.w3.org/2000/svg"
 width="534.000000pt" height="534.000000pt" viewBox="0 0 534.000000 534.000000"
 preserveAspectRatio="xMidYMid meet">
<metadata>
Created by potrace 1.14, written by Peter Selinger 2001-2017
</metadata>
<g transform="translate(0.000000,534.000000) scale(0.100000,-0.100000)"
fill="#000000" stroke="none">
<path d="M0 2670 l0 -2670 658 1 c594 1 649 2 575 15 -282 47 -516 215 -647
464 -75 142 -100 245 -100 415 0 241 80 440 248 613 242 251 595 334 926 220
47 -16 92 -31 100 -34 12 -4 85 113 285 457 149 255 270 470 269 478 0 13
-582 827 -1202 1681 -171 235 -205 323 -185 479 21 164 92 293 235 426 78 72
152 125 162 114 1 -2 261 -445 576 -984 315 -539 605 -1034 644 -1101 l71
-121 645 1104 c354 606 647 1103 651 1103 22 0 138 -92 201 -159 150 -159 219
-359 184 -529 -8 -38 -27 -94 -42 -123 -15 -30 -119 -182 -232 -339 -113 -157
-410 -567 -659 -912 -249 -346 -453 -633 -453 -640 0 -6 123 -222 272 -479
l273 -467 55 25 c364 161 808 43 1057 -280 51 -66 124 -215 148 -302 23 -83
31 -308 15 -399 -39 -220 -182 -438 -374 -570 -101 -70 -273 -132 -411 -149
-16 -2 291 -5 683 -6 l712 -1 0 2670 0 2670 -2670 0 -2670 0 0 -2670z"/>
<path d="M2345 1859 c-149 -205 -274 -380 -279 -390 -6 -13 -1 -28 21 -56 113
-145 183 -384 168 -573 -33 -435 -352 -774 -780 -830 -33 -4 480 -7 1140 -7
660 0 1172 3 1138 8 -277 36 -522 198 -666 440 -50 86 -97 233 -110 352 -24
210 40 446 164 614 l31 41 -265 369 c-146 202 -272 376 -279 386 -12 17 -39
-17 -283 -354z"/>
<path d="M1236 1409 c-122 -29 -273 -148 -333 -264 -160 -308 3 -684 333 -769
389 -100 748 259 648 648 -46 180 -199 334 -378 382 -57 15 -210 17 -270 3z"/>
<path d="M3726 1409 c-80 -19 -169 -72 -241 -144 -110 -109 -155 -219 -155
-376 0 -150 58 -286 165 -385 135 -126 309 -171 495 -128 220 50 399 280 400
515 0 77 -34 203 -73 269 -65 111 -189 207 -316 244 -60 18 -210 20 -275 5z"/>
</g>
</svg>
